<svg xmlns="http://www.w3.org/2000/svg" version="1.1" xmlns:xlink="http://www.w3.org/1999/xlink" xmlns:svgjs="http://svgjs.com/svgjs" width="512" height="512" x="0" y="0" viewBox="0 0 60 60" style="enable-background:new 0 0 512 512" xml:space="preserve" class=""><g><path xmlns="http://www.w3.org/2000/svg" d="m54 25.981v-11.789a2 2 0 0 0 -1.9-1.99c-11.65-.62-17.86-6.8-20.51-10.4a1.977 1.977 0 0 0 -3.18 0c-2.65 3.6-8.86 9.78-20.51 10.4a2 2 0 0 0 -1.9 1.99v11.789l1.01 11.25a30.153 30.153 0 0 0 22.99 21.769 30.153 30.153 0 0 0 22.99-21.769z" fill="#bfdbf0" data-original="#bfdbf0"></path><path xmlns="http://www.w3.org/2000/svg" d="m50 21v-4.02a1 1 0 0 0 -.89-.99 30.18 30.18 0 0 1 -18.4-9.05.99.99 0 0 0 -1.42 0 30.18 30.18 0 0 1 -18.4 9.05 1 1 0 0 0 -.89.99v4.02l.83 15.119a26.372 26.372 0 0 0 18.13 18.731 3.68 3.68 0 0 0 2.08 0 26.372 26.372 0 0 0 18.13-18.729z" fill="#3c5c88" data-original="#3c5c88"></path><path xmlns="http://www.w3.org/2000/svg" d="m16.059 26.28-2.82-.41-2.09-4.17a1.3 1.3 0 0 0 -2.3 0l-2.09 4.17-4.66.67a1.255 1.255 0 0 0 -.71 2.15l3.38 3.25-.8 4.58a1.272 1.272 0 0 0 1.85 1.33l4.181-2.16 4.18 2.16a1.272 1.272 0 0 0 1.85-1.33l-.8-4.58 3.12-3z" fill="#32c7a0" data-original="#32c7a0"></path><path xmlns="http://www.w3.org/2000/svg" d="m43.941 26.28 2.82-.41 2.09-4.17a1.3 1.3 0 0 1 2.3 0l2.09 4.17 4.66.67a1.255 1.255 0 0 1 .71 2.15l-3.38 3.25.8 4.58a1.272 1.272 0 0 1 -1.85 1.33l-4.181-2.16-4.18 2.16a1.272 1.272 0 0 1 -1.85-1.33l.8-4.58-3.12-3z" fill="#32c7a0" data-original="#32c7a0"></path><path xmlns="http://www.w3.org/2000/svg" d="m43.4 27.221-5.258 5.149 1.244 7.283a2 2 0 0 1 -2.886 2.114l-6.5-3.436-6.5 3.436a2 2 0 0 1 -2.887-2.114l1.244-7.283-5.257-5.149a2.013 2.013 0 0 1 1.1-3.426l7.256-1.062 3.254-6.621a1.984 1.984 0 0 1 3.564 0l3.254 6.621 7.264 1.067a2.013 2.013 0 0 1 1.108 3.421z" fill="#14e4b3" data-original="#14e4b3"></path></g></svg>