<svg xmlns="http://www.w3.org/2000/svg" version="1.1" xmlns:xlink="http://www.w3.org/1999/xlink" xmlns:svgjs="http://svgjs.com/svgjs" width="512" height="512" x="0" y="0" viewBox="0 0 512.003 512.003" style="enable-background:new 0 0 512 512" xml:space="preserve" class=""><g><g xmlns="http://www.w3.org/2000/svg"><g><path d="m121.946 301.884c-14.391 5.579-27.182 10.538-31.977 12.397-16.691 6.869-39.04 28.481-39.04 60.553v116.671c0 7.185 5.825 13.009 13.009 13.009h58.007v-202.63z" fill="#8479c2" data-original="#8479c2"></path><path d="m380.925 314.281c-4.563-1.769-18.486-7.167-34.479-13.367v203.6h60.509c7.185 0 13.009-5.824 13.009-13.009 0-4.59 0-112.053 0-116.671.001-32.071-22.348-53.684-39.039-60.553z" fill="#8479c2" data-original="#8479c2"></path><g><path d="m91.596 491.505c0-4.59 0-130.053 0-134.671 0-24.891 13.462-43.477 27.293-53.765-13.587 5.267-24.896 9.652-28.92 11.212-16.691 6.869-39.04 28.481-39.04 60.553v116.671c0 7.185 5.825 13.009 13.009 13.009h40.667c-7.185 0-13.009-5.824-13.009-13.009z" fill="#6e60b8" data-original="#6e60b8"></path></g><path d="m283.547 289.111c1.407-3.538 2.401-7.359 2.914-11.452-2.194-.85-3.588-1.391-3.944-1.529-2.101-.814-7.027-2.145-7.027-7.669v-25.507c-.074.047-.152.089-.226.136v-.594c-11.272 7.494-24.785 11.874-39.306 11.874-15.603 0-29.322-4.269-40.554-11.416v25.507c0 5.524-4.927 6.855-7.028 7.669-.407.158-2.167.84-4.934 1.913.525 3.949 1.494 7.644 2.854 11.068z" fill="#ffcebe" data-original="#ffcebe"></path><path d="m234.927 289.111v-34.759c-15.175-.185-28.541-4.41-39.523-11.398v25.507c0 5.524-4.927 6.855-7.028 7.669-.407.158-15.017 5.822-17.784 6.895.284 2.141.808 4.162 1.511 6.087h62.824z" fill="#ffb1a0" data-original="#ffb1a0"></path><path d="m321.111 131.044c-2.349 1.926-5.346 3.087-8.602 3.087-1.839 0-7.686-3.416-9.419-3.786l4.055 54.838c0 .679-.032 1.351-.051 2.026 17.521.992 33.504-11.969 33.504-27.706 0-12.224-7.913-24.636-19.487-28.459z" fill="#ffcebe" data-original="#ffcebe"></path><path d="m328.829 135.23c-2.318-1.815-4.907-3.258-7.717-4.186-2.349 1.926-5.346 3.087-8.602 3.087-1.839 0-7.687-3.417-9.419-3.786l4.055 54.839c0 .679-.032 1.351-.052 2.026 8.034.455 15.74-2.03 21.735-6.365z" fill="#ffb1a0" data-original="#ffb1a0"></path><path d="m162.71 185.183 5.369-53.052-14.265 2c-2.705 0-5.281-.527-7.659-1.451-9.605 4.688-16.897 15.721-16.897 26.824 0 15.717 15.956 28.7 33.502 27.705-.02-.675-.05-1.348-.05-2.026z" fill="#ffcebe" data-original="#ffcebe"></path><path d="m163.02 182.113c-8.529-5.212-14.353-13.861-14.353-23.508 0-10.119 5.872-20.175 14.07-25.725l-8.924 1.251c-2.705 0-5.282-.527-7.659-1.451-9.604 4.688-16.897 15.721-16.897 26.824 0 15.717 15.956 28.7 33.502 27.705-.02-.675-.05-1.348-.05-2.025z" fill="#ffb1a0" data-original="#ffb1a0"></path><path d="m286.548 106.17c0-1.392-1.863-1.871-2.518-.644-8.464 15.83-25.144 26.605-44.35 26.605h-76.97v53.052c0 37.206 29.152 71.187 73.248 71.187 39.253 0 71.188-31.935 71.188-71.187v-53.617c-11.728-2.489-20.598-12.956-20.598-25.396z" fill="#ffdecf" data-original="#ffdecf"></path><path d="m210.772 185.184v-53.052h-48.063v53.052c0 37.205 29.152 71.187 73.248 71.187 8.154 0 15.983-1.396 23.285-3.931-29.899-9.959-48.47-37.571-48.47-67.256z" fill="#ffcebe" data-original="#ffcebe"></path><path d="m302.52 40.424c-6.802.523-13.043-3.754-14.352-10.449-2.205-11.275-7.787-22.464-29.593-22.464h-75.655c-27.766 0-50.275 22.509-50.275 50.275v55.176c0 11.691 9.477 21.169 21.169 21.169h85.866c19.206 0 35.886-10.775 44.35-26.605.656-1.227 2.518-.748 2.518.644 0 14.279 11.683 25.961 25.961 25.961 7.485 0 13.608-6.124 13.608-13.608 0-6.61 0-50.307 0-57.579.001-13.565-11.834-23.424-23.597-22.52z" fill="#695d67" data-original="#695d67"></path><g><path d="m183.442 112.962v-55.176c0-27.767 22.509-50.275 50.275-50.275h-50.797c-27.767 0-50.275 22.509-50.275 50.275v55.176c0 11.691 9.478 21.169 21.169 21.169h50.797c-11.691 0-21.169-9.477-21.169-21.169z" fill="#544e55" data-original="#544e55" class=""></path></g><path d="m271.556 281.84h-143.07c-11.143 0-20.208 9.065-20.208 20.208v152.157c0 8.979 6.063 17.864 14.491 20.373h225.357c8.428-2.51 14.491-11.395 14.491-20.373v-94.442c-47.393-.742-83.521-32.492-91.061-77.923z" fill="#dfebfa" data-original="#dfebfa"></path><path d="m155.278 454.205v-152.157c0-11.143 9.065-20.208 20.208-20.208h-47c-11.143 0-20.208 9.065-20.208 20.208v152.157c0 8.979 6.063 17.864 14.491 20.374h47c-8.428-2.51-14.491-11.395-14.491-20.374z" fill="#bed8fb" data-original="#bed8fb"></path><path d="m376.145 473.579h-281.396c-1.863 0-3.374 1.525-3.374 3.407v11.719c0 8.695 7.046 15.81 15.657 15.81h256.83c8.611 0 15.657-7.114 15.657-15.81v-11.719c0-1.882-1.511-3.407-3.374-3.407z" fill="#bed8fb" data-original="#bed8fb"></path><path d="m148.46 488.704v-11.719c0-1.882 1.51-3.407 3.374-3.407h-57.085c-1.863 0-3.374 1.525-3.374 3.407v11.719c0 8.695 7.046 15.81 15.657 15.81h57.085c-8.612 0-15.657-7.114-15.657-15.81z" fill="#9dc6fb" data-original="#9dc6fb"></path><circle cx="364.163" cy="265.857" fill="#ff656f" r="96.926" data-original="#ff656f"></circle><path d="m309.619 265.857c0-46.251 32.397-84.93 75.735-94.596-6.821-1.521-13.911-2.33-21.191-2.33-53.531 0-96.926 43.395-96.926 96.926s43.395 96.926 96.926 96.926c7.28 0 14.37-.809 21.191-2.33-43.337-9.666-75.735-48.345-75.735-94.596z" fill="#ff4756" data-original="#ff4756"></path><path d="m417.725 248.589c-.728-3.454-4.996-4.729-7.492-2.233l-31.093 31.093c-.961.961-2.362 1.337-3.675.985l-17.753-4.757c-1.313-.352-2.339-1.377-2.691-2.69l-4.757-17.753c-.352-1.313.024-2.714.985-3.675l31.496-31.496c2.483-2.483 1.225-6.682-2.194-7.479-16.765-3.911-35.172 1.003-47.814 14.741-17.353 18.857-17.314 48.317.085 67.131 19.213 20.777 51.647 21.255 71.468 1.433 12.3-12.302 16.773-29.458 13.435-45.3z" fill="#ffe181" data-original="#ffe181"></path><g><g><path d="m332.821 292.455c-5.282-5.712-8.954-12.407-11.035-19.487l-42.714 42.714c4.003 6.669 8.873 12.963 14.621 18.711s12.042 10.619 18.711 14.621l42.682-42.682c-8.235-2.445-15.963-7.062-22.265-13.877z" fill="#fec458" data-original="#fec458"></path></g></g></g><g><path d="m467.573 265.846c0-63.149-55.547-111.996-118.63-103.467 1.189-12.381-4.794-26.234-15.836-34.066.966-2.417 1.512-5.045 1.512-7.802v-57.578c0-18.069-15.673-31.233-31.673-29.998-3.168.245-5.869-1.61-6.416-4.41-3.753-19.194-15.841-28.525-36.954-28.525h-20.546c-4.143 0-7.5 3.358-7.5 7.5s3.357 7.5 7.5 7.5h20.546c17.57 0 20.543 7.759 22.233 16.403 1.998 10.224 11.576 17.311 22.287 16.488 7.563-.59 15.522 5.991 15.522 15.042v57.579c0 11.782-24.57 5.768-24.57-12.353 0-4.064-2.754-7.592-6.697-8.581-3.939-.988-8.022.823-9.936 4.401-7.467 13.965-21.926 22.641-37.735 22.641-9.149 0-76.427 0-85.866 0-7.295 0-13.669-5.935-13.669-13.669v-55.176c0-23.586 19.189-42.775 42.775-42.775h20.109c4.143 0 7.5-3.358 7.5-7.5s-3.357-7.5-7.5-7.5h-20.109c-31.857 0-57.775 25.918-57.775 57.775v55.176c0 7.739 3.088 14.767 8.09 19.93-7.044 7.031-11.477 16.841-11.477 26.612 0 17.975 15.562 32.655 34.01 34.935 2.54 21.782 14.023 41.558 32.136 54.484v19.314c-.44.236-15.194 5.923-15.66 6.104h-43.843c-15.278 0-27.708 12.43-27.708 27.708v.031l-13.437 5.209c-.048.019-.095.038-.143.057-21.04 8.659-43.685 33.471-43.685 67.488v116.671c0 11.309 9.2 20.509 20.509 20.509h342.847c11.309 0 20.509-9.2 20.509-20.509v-44.638c0-4.142-3.357-7.5-7.5-7.5s-7.5 3.358-7.5 7.5v44.638c0 3.038-2.472 5.509-5.509 5.509h-21.378c.983-2.583 1.526-5.383 1.526-8.31v-11.719c0-6.014-4.878-10.907-10.874-10.907h-8.77c1.751-3.645 2.741-7.681 2.741-11.874v-84.213c14.099-1.045 27.637-4.896 39.972-11.27 1.522 5.262 2.291 10.656 2.291 16.113v37.033c0 4.142 3.357 7.5 7.5 7.5s7.5-3.358 7.5-7.5v-37.033c0-8.247-1.411-16.356-4.156-24.194 26.515-19.158 43.437-49.924 43.437-84.783zm-311.363-86.723c-10.308-2.279-18.452-10.444-18.452-19.629 0-7.017 4.281-14.595 10.289-18.687 2.999.729 5.281.814 8.163.814zm159.436-37.611c2.539-.257 5.1-1.061 7.105-2.038 8.924 4.973 13.841 17.47 10.006 26.414-5.903 1.786-11.624 4.101-17.111 6.909zm-144.436 43.66v-43.552h69.47c16.317 0 31.907-6.995 42.718-18.875 3.526 7.251 9.606 13.029 17.052 16.2.066.028.13.06.196.088v43.137c-21.071 15.807-34.584 38.094-39.656 61.968-40.207 16.514-89.78-11.181-89.78-58.966zm87.855 89.158h-56.298c.758-1.762 1.138-3.724 1.138-5.88v-11.138c16.2 6.846 36.408 8.844 54.939 3.454-.22 4.5-.147 9.034.221 13.564zm-142.371 27.708c0-7.007 5.701-12.708 12.708-12.708h131.98c9.613 41.723 44.314 76.124 94.649 80.7v84.165c0 5.25-3.333 10.002-8.215 11.874h-222.908c-4.882-1.872-8.214-6.623-8.214-11.874 0-19.293 0-148.043 0-152.157zm227.241-46.874 4.756 17.752c1.042 3.891 4.106 6.954 7.994 7.995l17.755 4.758c3.887 1.04 8.07-.08 10.919-2.927l26.759-26.76c2.687 38.972-45.661 60.792-72.874 31.37h-.001c-25.776-27.874-3.818-74.022 34.9-70.391l-27.283 27.283c-2.848 2.849-3.969 7.034-2.925 10.92zm-1.14 53.759-30.49 30.49c-8.975-6.232-16.576-13.857-22.713-22.739l30.488-30.489c.065.12.14.233.206.353 5.193 9.401 13.166 17.263 22.509 22.385zm-258.004 168.052v11.719c0 2.927.544 5.727 1.526 8.31h-21.378c-3.037 0-5.509-2.471-5.509-5.509v-116.672c0-28.904 20.499-47.863 34.323-53.588l7.94-3.078v136.038c0 4.193.99 8.229 2.741 11.874h-8.771c-5.995-.001-10.872 4.891-10.872 10.906zm288.143 4.093v7.625c0 4.579-3.654 8.304-8.148 8.31h-256.849c-4.493-.005-8.147-3.731-8.147-8.31v-7.625zm-47.135-133.935 32.482-32.482c40.718 8.559 76.163-27.454 67.698-67.62-1.953-9.266-13.433-12.689-20.135-5.989l-29.584 29.585-13.632-3.653-3.652-13.632 29.986-29.987c6.629-6.626 3.348-17.955-5.793-20.087-40.117-9.361-77.409 25.83-68.753 67.368l-32.532 32.532c-27.219-59.431 16.425-126.748 81.261-126.748 49.425 0 89.427 39.996 89.427 89.426.001 65.549-68.039 108.31-126.773 81.287z" fill="#000000" data-original="#000000" class=""></path><path d="m218.935 392.79h22.894c4.143 0 7.5-3.358 7.5-7.5s-3.357-7.5-7.5-7.5h-22.894c-4.143 0-7.5 3.358-7.5 7.5s3.357 7.5 7.5 7.5z" fill="#000000" data-original="#000000" class=""></path></g></g></g></svg>