<svg xmlns="http://www.w3.org/2000/svg" version="1.1" xmlns:xlink="http://www.w3.org/1999/xlink" xmlns:svgjs="http://svgjs.com/svgjs" width="512" height="512" x="0" y="0" viewBox="0 0 512 512" style="enable-background:new 0 0 512 512" xml:space="preserve" class=""><g><g xmlns="http://www.w3.org/2000/svg"><path d="m456.786 463.514-401.562.012c-11.434 0-20.704-9.269-20.705-20.703l-.008-270.67c0-11.434 9.269-20.704 20.703-20.705l401.562-.012c11.434 0 20.704 9.269 20.705 20.703l.008 270.67c0 11.435-9.269 20.705-20.703 20.705z" fill="#4380a0" data-original="#4380a0"></path><path d="m477.489 442.71c0 11.485-9.22 20.806-20.604 20.806h-30.905c11.383 0 20.604-9.321 20.604-20.806l-.01-270.467c0-11.475-9.189-20.775-20.552-20.806h30.854c11.383 0 20.604 9.311 20.604 20.806z" fill="#3b7191" data-original="#3b7191"></path><path d="m446.583 428.268c0 2.231-1.791 4.039-4 4.039h-26.905l-346.251.01c-2.209 0-4-1.808-4-4.039l-.01-241.583c0-2.231 1.791-4.039 4-4.039l346.251-.01h26.906c2.209 0 4 1.808 4 4.039z" fill="#f3f3f3" data-original="#f3f3f3"></path><path d="m442.583 432.307h-26.905l-.01-249.661h26.906c2.209 0 4 1.808 4 4.039l.01 241.583c-.001 2.231-1.791 4.039-4.001 4.039z" fill="#e4e4e4" data-original="#e4e4e4"></path><path d="m485.215 512h-458.43c-14.793 0-26.785-11.992-26.785-26.785v-20.604c0-2.276 1.845-4.121 4.121-4.121h503.759c2.276 0 4.121 1.845 4.121 4.121v20.604c-.001 14.793-11.993 26.785-26.786 26.785z" fill="#a9dbf5" data-original="#a9dbf5"></path><path d="m507.879 460.491h-30.905c2.276 0 4.121 1.845 4.121 4.121v20.604c0 14.793-11.992 26.785-26.785 26.785h30.905c14.793-.001 26.785-11.993 26.785-26.786v-20.604c0-2.275-1.845-4.12-4.121-4.12z" fill="#88c3e0" data-original="#88c3e0"></path><path d="m291.026 485.215h-70.052c-6.827 0-12.362-5.535-12.362-12.362v-12.362h94.776v12.362c0 6.828-5.535 12.362-12.362 12.362z" fill="#88c3e0" data-original="#88c3e0"></path><g><g fill="#22b5ed"><path d="m203.804 0h-23.809c-2.276 0-4.121 1.845-4.121 4.121v32.96c0 2.276 1.845 4.121 4.121 4.121h23.809c2.276 0 4.121-1.845 4.121-4.121v-32.96c0-2.276-1.845-4.121-4.121-4.121z" fill="#22b5ed" data-original="#22b5ed"></path><path d="m139.704 41.201h-23.809c-2.276 0-4.121 1.845-4.121 4.121v44.265c0 2.276 1.845 4.121 4.121 4.121h23.809c2.276 0 4.121-1.845 4.121-4.121v-44.265c0-2.276-1.845-4.121-4.121-4.121z" fill="#22b5ed" data-original="#22b5ed"></path><path d="m268.934 54.441h-23.809c-2.276 0-4.121 1.845-4.121 4.121v44.265c0 2.276 1.845 4.121 4.121 4.121h23.809c2.276 0 4.121-1.845 4.121-4.121v-44.265c0-2.276-1.845-4.121-4.121-4.121z" fill="#22b5ed" data-original="#22b5ed"></path><path d="m368.175 39.848v44.265c0 2.276 1.845 4.121 4.121 4.121h23.809c2.276 0 4.121-1.845 4.121-4.121v-44.265c0-2.276-1.845-4.121-4.121-4.121h-23.809c-2.276 0-4.121 1.845-4.121 4.121z" fill="#22b5ed" data-original="#22b5ed"></path><path d="m332.004 8.443h-23.809c-2.276 0-4.121 1.845-4.121 4.121v64.011c0 2.276 1.845 4.121 4.121 4.121h23.809c2.276 0 4.121-1.845 4.121-4.121v-64.012c0-2.275-1.845-4.12-4.121-4.12z" fill="#22b5ed" data-original="#22b5ed"></path></g><path d="m364.055 229.221h-23.809c-2.276 0-4.121-1.845-4.121-4.121v-92.093c0-2.276-1.845-4.121-4.121-4.121h-23.809c-2.276 0-4.121 1.845-4.121 4.121v72.681c0 2.276-1.845 4.121-4.121 4.121h-23.809c-2.276 0-4.121-1.845-4.121-4.121v-50.13c0-2.276-1.845-4.121-4.121-4.121h-23.809c-2.276 0-4.121 1.845-4.121 4.121v22.664c0 2.276-1.845 4.121-4.121 4.121h-23.809c-2.276 0-4.121-1.845-4.121-4.121v-85.867c0-2.276-1.845-4.121-4.121-4.121h-23.809c-2.276 0-4.121 1.845-4.121 4.121v124.608c0 2.276-1.845 4.121-4.121 4.121h-23.809c-2.276 0-4.121-1.845-4.121-4.121v-83.956c0-2.276-1.845-4.121-4.121-4.121h-23.809c-2.276 0-4.121 1.845-4.121 4.121v153.603c0 2.276 1.845 4.121 4.121 4.121h280.209c2.276 0 4.121-1.845 4.121-4.121v-153.603c0-2.276-1.845-4.121-4.121-4.121h-23.809c-2.276 0-4.121 1.845-4.121 4.121v92.093c.007 2.276-1.838 4.121-4.113 4.121z" fill="#29cef6" data-original="#29cef6"></path></g><path d="m377.561 379.622h-243.122c-12.517 0-22.664-10.147-22.664-22.664v-78.294c0-12.517 10.147-22.664 22.664-22.664h243.123c12.517 0 22.664 10.147 22.664 22.664v78.294c-.001 12.517-10.148 22.664-22.665 22.664z" fill="#a9dbf5" data-original="#a9dbf5"></path><path d="m377.561 256h-30.905c12.517 0 22.664 10.147 22.664 22.664v78.294c0 12.517-10.147 22.664-22.664 22.664h30.905c12.517 0 22.664-10.147 22.664-22.664v-78.294c0-12.517-10.147-22.664-22.664-22.664z" fill="#88c3e0" data-original="#88c3e0"></path><path d="m142.68 344.596v-53.569c0-2.276 1.845-4.121 4.121-4.121h218.398c2.276 0 4.121 1.845 4.121 4.121v53.569c0 2.276-1.845 4.121-4.121 4.121h-218.398c-2.276-.001-4.121-1.846-4.121-4.121z" fill="#43809f" data-original="#43809f"></path><g fill="#f78e36"><path d="m190.061 319.871c-8.534 0-15.453-6.918-15.453-15.453v-17.513h30.905v17.513c.001 8.535-6.917 15.453-15.452 15.453z" fill="#f78e36" data-original="#f78e36"></path><path d="m241.577 319.871c-8.534 0-15.453-6.918-15.453-15.453v-17.513h30.905v17.513c.001 8.535-6.917 15.453-15.452 15.453z" fill="#f78e36" data-original="#f78e36"></path></g></g></g></svg>