<svg xmlns="http://www.w3.org/2000/svg" version="1.1" xmlns:xlink="http://www.w3.org/1999/xlink" xmlns:svgjs="http://svgjs.com/svgjs" width="512" height="512" x="0" y="0" viewBox="0 0 64 64" style="enable-background:new 0 0 512 512" xml:space="preserve" class=""><g><path xmlns="http://www.w3.org/2000/svg" d="m16 47h8v16h-8z" fill="#4a5e73" data-original="#4a5e73" class=""></path><path xmlns="http://www.w3.org/2000/svg" d="m40 47h8v16h-8z" fill="#4a5e73" data-original="#4a5e73" class=""></path><path xmlns="http://www.w3.org/2000/svg" d="m24 39v24h16v-24a1 1 0 0 0 -1-1h-14a1 1 0 0 0 -1 1z" fill="#415466" data-original="#415466"></path><path xmlns="http://www.w3.org/2000/svg" d="m29 58h6v5h-6z" fill="#add8e6" data-original="#add8e6"></path><ellipse xmlns="http://www.w3.org/2000/svg" cx="13" cy="19" fill="#71abe3" rx="11" ry="5" data-original="#71abe3"></ellipse><path xmlns="http://www.w3.org/2000/svg" d="m19 19h-12v-17a1 1 0 0 1 1-1h10a1 1 0 0 1 1 1z" fill="#4a5e73" data-original="#4a5e73" class=""></path><g xmlns="http://www.w3.org/2000/svg" fill="#add8e6"><path d="m11 15h4v4h-4z" fill="#add8e6" data-original="#add8e6"></path><path d="m27 45h2v2h-2z" fill="#add8e6" data-original="#add8e6"></path><path d="m35 45h2v2h-2z" fill="#add8e6" data-original="#add8e6"></path><path d="m31 45h2v2h-2z" fill="#add8e6" data-original="#add8e6"></path><path d="m27 41h2v2h-2z" fill="#add8e6" data-original="#add8e6"></path><path d="m35 41h2v2h-2z" fill="#add8e6" data-original="#add8e6"></path><path d="m31 41h2v2h-2z" fill="#add8e6" data-original="#add8e6"></path><path d="m31 49h2v2h-2z" fill="#add8e6" data-original="#add8e6"></path><path d="m31 53h2v2h-2z" fill="#add8e6" data-original="#add8e6"></path><path d="m27 49h2v2h-2z" fill="#add8e6" data-original="#add8e6"></path><path d="m35 49h2v2h-2z" fill="#add8e6" data-original="#add8e6"></path><path d="m27 53h2v2h-2z" fill="#add8e6" data-original="#add8e6"></path><path d="m35 53h2v2h-2z" fill="#add8e6" data-original="#add8e6"></path><path d="m43 50h2v2h-2z" fill="#add8e6" data-original="#add8e6"></path><path d="m43 54h2v2h-2z" fill="#add8e6" data-original="#add8e6"></path><path d="m43 58h2v2h-2z" fill="#add8e6" data-original="#add8e6"></path><path d="m19 50h2v2h-2z" fill="#add8e6" data-original="#add8e6"></path><path d="m19 54h2v2h-2z" fill="#add8e6" data-original="#add8e6"></path><path d="m19 58h2v2h-2z" fill="#add8e6" data-original="#add8e6"></path><path d="m9 3h2v2h-2z" fill="#add8e6" data-original="#add8e6"></path><path d="m12 3h2v2h-2z" fill="#add8e6" data-original="#add8e6"></path><path d="m15 3h2v2h-2z" fill="#add8e6" data-original="#add8e6"></path><path d="m9 7h2v2h-2z" fill="#add8e6" data-original="#add8e6"></path><path d="m12 7h2v2h-2z" fill="#add8e6" data-original="#add8e6"></path><path d="m15 7h2v2h-2z" fill="#add8e6" data-original="#add8e6"></path><path d="m9 11h2v2h-2z" fill="#add8e6" data-original="#add8e6"></path><path d="m12 11h2v2h-2z" fill="#add8e6" data-original="#add8e6"></path><path d="m15 11h2v2h-2z" fill="#add8e6" data-original="#add8e6"></path></g><ellipse xmlns="http://www.w3.org/2000/svg" cx="51" cy="19" fill="#71abe3" rx="11" ry="5" data-original="#71abe3"></ellipse><path xmlns="http://www.w3.org/2000/svg" d="m57 19h-12v-17a1 1 0 0 1 1-1h10a1 1 0 0 1 1 1z" fill="#4a5e73" data-original="#4a5e73" class=""></path><path xmlns="http://www.w3.org/2000/svg" d="m49 15h4v4h-4z" fill="#add8e6" data-original="#add8e6"></path><path xmlns="http://www.w3.org/2000/svg" d="m47 3h2v2h-2z" fill="#add8e6" data-original="#add8e6"></path><path xmlns="http://www.w3.org/2000/svg" d="m50 3h2v2h-2z" fill="#add8e6" data-original="#add8e6"></path><path xmlns="http://www.w3.org/2000/svg" d="m53 3h2v2h-2z" fill="#add8e6" data-original="#add8e6"></path><path xmlns="http://www.w3.org/2000/svg" d="m47 7h2v2h-2z" fill="#add8e6" data-original="#add8e6"></path><path xmlns="http://www.w3.org/2000/svg" d="m50 7h2v2h-2z" fill="#add8e6" data-original="#add8e6"></path><path xmlns="http://www.w3.org/2000/svg" d="m53 7h2v2h-2z" fill="#add8e6" data-original="#add8e6"></path><path xmlns="http://www.w3.org/2000/svg" d="m47 11h2v2h-2z" fill="#add8e6" data-original="#add8e6"></path><path xmlns="http://www.w3.org/2000/svg" d="m50 11h2v2h-2z" fill="#add8e6" data-original="#add8e6"></path><path xmlns="http://www.w3.org/2000/svg" d="m53 11h2v2h-2z" fill="#add8e6" data-original="#add8e6"></path><path xmlns="http://www.w3.org/2000/svg" d="m22 26.239h2v9.22h-2z" fill="#5b80a6" transform="matrix(.759 -.651 .651 .759 -14.539 22.395)" data-original="#5b80a6" class=""></path><path xmlns="http://www.w3.org/2000/svg" d="m36.39 29.849h9.22v2h-9.22z" fill="#5b80a6" transform="matrix(.651 -.759 .759 .651 -9.105 41.9)" data-original="#5b80a6" class=""></path></g></svg>