<svg xmlns="http://www.w3.org/2000/svg" version="1.1" xmlns:xlink="http://www.w3.org/1999/xlink" xmlns:svgjs="http://svgjs.com/svgjs" width="512" height="512" x="0" y="0" viewBox="0 0 24 24" style="enable-background:new 0 0 512 512" xml:space="preserve" class=""><g><path xmlns="http://www.w3.org/2000/svg" d="m12 14.5c-.553 0-1-.448-1-1v-7.5c0-.552.447-1 1-1s1 .448 1 1v7.5c0 .552-.447 1-1 1z" fill="#90a4ae" data-original="#90a4ae"></path><path xmlns="http://www.w3.org/2000/svg" d="m12 5c-.553 0-1 .448-1 1v7.25c0 .552.447 1 1 1v-6.5z" fill="#7d8f97" data-original="#7d8f97"></path><path xmlns="http://www.w3.org/2000/svg" d="m4 24c-.553 0-1-.448-1-1v-2c0-.552.447-1 1-1s1 .448 1 1v2c0 .552-.447 1-1 1z" fill="#90a4ae" data-original="#90a4ae"></path><path xmlns="http://www.w3.org/2000/svg" d="m20 24c-.553 0-1-.448-1-1v-2c0-.552.447-1 1-1s1 .448 1 1v2c0 .552-.447 1-1 1z" fill="#90a4ae" data-original="#90a4ae"></path><path xmlns="http://www.w3.org/2000/svg" d="m21.25 22h-18.5c-1.517 0-2.75-1.234-2.75-2.75v-3.5c0-1.517 1.233-2.75 2.75-2.75h18.5c1.517 0 2.75 1.233 2.75 2.75v3.5c0 1.516-1.233 2.75-2.75 2.75z" fill="#607d8b" data-original="#607d8b" class=""></path><g xmlns="http://www.w3.org/2000/svg" fill="#2196f3"><path d="m14.38 7.524c-.34-.237-.422-.705-.185-1.044.2-.285.305-.624.305-.98s-.105-.695-.305-.98c-.237-.339-.155-.807.185-1.044s.808-.155 1.044.184c.377.538.576 1.174.576 1.84s-.199 1.302-.576 1.84c-.236.338-.704.423-1.044.184z" fill="#2196f3" data-original="#2196f3"></path><path d="m16.868 9.229c-.343-.233-.432-.7-.198-1.042.543-.796.83-1.726.83-2.687s-.287-1.891-.83-2.688c-.233-.342-.145-.809.198-1.042.343-.234.809-.144 1.042.197.713 1.047 1.09 2.269 1.09 3.533s-.377 2.486-1.09 3.532c-.235.344-.703.43-1.042.197z" fill="#2196f3" data-original="#2196f3"></path><path d="m19.332 10.866c-.34-.236-.425-.703-.188-1.043.887-1.28 1.356-2.775 1.356-4.323s-.469-3.043-1.356-4.323c-.236-.34-.151-.808.188-1.043.344-.236.809-.151 1.044.189 1.062 1.531 1.624 3.321 1.624 5.177s-.562 3.646-1.624 5.177c-.235.339-.7.426-1.044.189z" fill="#2196f3" data-original="#2196f3"></path><path d="m8.576 7.34c-.377-.538-.576-1.175-.576-1.84s.199-1.302.576-1.84c.236-.34.704-.423 1.044-.185.34.237.422.705.185 1.044-.2.286-.305.624-.305.981s.105.695.305.98c.237.339.155.807-.185 1.044-.34.239-.808.154-1.044-.184z" fill="#2196f3" data-original="#2196f3"></path><path d="m6.09 9.032c-.713-1.046-1.09-2.268-1.09-3.532s.377-2.486 1.09-3.532c.233-.341.7-.431 1.042-.197.343.233.432.7.198 1.042-.543.796-.83 1.725-.83 2.687s.287 1.891.83 2.688c.233.342.145.808-.198 1.041-.339.233-.807.147-1.042-.197z" fill="#2196f3" data-original="#2196f3"></path><path d="m3.624 10.677c-1.062-1.532-1.624-3.322-1.624-5.177s.562-3.646 1.624-5.177c.236-.34.702-.425 1.044-.189.34.236.425.703.188 1.043-.887 1.28-1.356 2.775-1.356 4.323s.469 3.043 1.356 4.323c.236.34.151.808-.188 1.043-.344.237-.809.15-1.044-.189z" fill="#2196f3" data-original="#2196f3"></path></g><path xmlns="http://www.w3.org/2000/svg" d="m4 17.5c-.553 0-1 .448-1 1v4.5c0 .552.447 1 1 1z" fill="#7d8f97" data-original="#7d8f97"></path><path xmlns="http://www.w3.org/2000/svg" d="m20 17.5c-.553 0-1 .448-1 1v4.5c0 .552.447 1 1 1z" fill="#7d8f97" data-original="#7d8f97"></path><path xmlns="http://www.w3.org/2000/svg" d="m24 17.5h-24v1.75c0 1.516 1.233 2.75 2.75 2.75h18.5c1.517 0 2.75-1.233 2.75-2.75z" fill="#546d79" data-original="#546d79"></path><circle xmlns="http://www.w3.org/2000/svg" cx="19.5" cy="17.5" fill="#ffffff" r="1.5" data-original="#ffffff"></circle><circle xmlns="http://www.w3.org/2000/svg" cx="4.5" cy="17.5" fill="#ffffff" r="1.5" data-original="#ffffff"></circle><circle xmlns="http://www.w3.org/2000/svg" cx="9.5" cy="17.5" fill="#ffffff" r="1.5" data-original="#ffffff"></circle></g></svg>