<svg xmlns="http://www.w3.org/2000/svg" version="1.1" xmlns:xlink="http://www.w3.org/1999/xlink" xmlns:svgjs="http://svgjs.com/svgjs" width="512" height="512" x="0" y="0" viewBox="0 0 512 512" style="enable-background:new 0 0 512 512" xml:space="preserve" class=""><g><path xmlns="http://www.w3.org/2000/svg" d="m91.031 254.996h83.26v51.823h-83.26z" fill="#887f89" data-original="#887f89"></path><path xmlns="http://www.w3.org/2000/svg" d="m137.226 254.996h37.065v51.823h-37.065z" fill="#777078" data-original="#777078"></path><path xmlns="http://www.w3.org/2000/svg" d="m276.434 291.2h-266.333c-5.579 0-10.101 4.523-10.101 10.101v197.616c0 5.579 4.522 10.101 10.101 10.101h266.333z" fill="#b7afb9" data-original="#b7afb9"></path><path xmlns="http://www.w3.org/2000/svg" d="m224.6 291.2h51.834v217.818h-51.834z" fill="#a79fa9" data-original="#a79fa9"></path><path xmlns="http://www.w3.org/2000/svg" d="m228.603 132.461h-191.884c-7.424 0-13.442 6.018-13.442 13.442v97.436c0 7.424 6.018 13.442 13.442 13.442h191.885c7.424 0 13.442-6.018 13.442-13.442v-97.436c-.001-7.424-6.019-13.442-13.443-13.442z" fill="#fba72d" data-original="#fba72d"></path><path xmlns="http://www.w3.org/2000/svg" d="m228.603 132.461h-41.183c7.424 0 13.442 6.018 13.442 13.442v97.436c0 7.423-6.018 13.442-13.442 13.442h41.184c7.424 0 13.442-6.018 13.442-13.442v-97.436c-.001-7.424-6.019-13.442-13.443-13.442z" fill="#fa9a0f" data-original="#fa9a0f"></path><path xmlns="http://www.w3.org/2000/svg" d="m176.619 238.818c-3.051 0-5.804-1.83-6.985-4.642l-30.757-73.243c-1.62-3.858.194-8.299 4.051-9.919 3.858-1.618 8.299.193 9.919 4.051l23.772 56.609 23.772-56.609c1.62-3.858 6.06-5.669 9.919-4.051 3.857 1.62 5.671 6.061 4.051 9.919l-30.757 73.243c-1.181 2.812-3.934 4.642-6.985 4.642z" fill="#2d56a1" data-original="#2d56a1"></path><path xmlns="http://www.w3.org/2000/svg" d="m119.991 150.423h-62.046c-4.184 0-7.576 3.391-7.576 7.576 0 4.184 3.391 7.576 7.576 7.576h23.448v65.667c0 4.184 3.391 7.576 7.576 7.576 4.184 0 7.576-3.391 7.576-7.576v-65.667h23.447c4.184 0 7.576-3.391 7.576-7.576-.001-4.184-3.393-7.576-7.577-7.576z" fill="#2d56a1" data-original="#2d56a1"></path><path xmlns="http://www.w3.org/2000/svg" d="m156.48 411.825h-47.639c-5.579 0-10.101 4.522-10.101 10.101v87.092h67.841v-87.092c0-5.579-4.522-10.101-10.101-10.101z" fill="#777078" data-original="#777078"></path><path xmlns="http://www.w3.org/2000/svg" d="m156.48 411.825h-23.819v97.193h33.921v-87.092c-.001-5.579-4.523-10.101-10.102-10.101z" fill="#887f89" data-original="#887f89"></path><path xmlns="http://www.w3.org/2000/svg" d="m228.621 381.079h-30.303c-5.579 0-10.101-4.522-10.101-10.101v-30.303c0-5.579 4.522-10.101 10.101-10.101h30.303c5.579 0 10.101 4.522 10.101 10.101v30.303c0 5.578-4.522 10.101-10.101 10.101z" fill="#d5f1fe" data-original="#d5f1fe"></path><path xmlns="http://www.w3.org/2000/svg" d="m228.621 330.574h-21.623c5.579 0 10.101 4.522 10.101 10.101v30.303c0 5.579-4.522 10.101-10.101 10.101h21.623c5.579 0 10.101-4.523 10.101-10.101v-30.303c0-5.579-4.522-10.101-10.101-10.101z" fill="#b4e7fd" data-original="#b4e7fd"></path><path xmlns="http://www.w3.org/2000/svg" d="m147.813 381.079h-30.303c-5.579 0-10.101-4.522-10.101-10.101v-30.303c0-5.579 4.522-10.101 10.101-10.101h30.303c5.579 0 10.101 4.522 10.101 10.101v30.303c0 5.578-4.523 10.101-10.101 10.101z" fill="#d5f1fe" data-original="#d5f1fe"></path><path xmlns="http://www.w3.org/2000/svg" d="m147.813 330.574h-21.623c5.579 0 10.101 4.522 10.101 10.101v30.303c0 5.579-4.522 10.101-10.101 10.101h21.623c5.579 0 10.101-4.523 10.101-10.101v-30.303c0-5.579-4.523-10.101-10.101-10.101z" fill="#b4e7fd" data-original="#b4e7fd"></path><path xmlns="http://www.w3.org/2000/svg" d="m67.004 381.079h-30.304c-5.579 0-10.101-4.522-10.101-10.101v-30.303c0-5.579 4.522-10.101 10.101-10.101h30.303c5.579 0 10.101 4.522 10.101 10.101v30.303c.001 5.578-4.522 10.101-10.1 10.101z" fill="#fff692" data-original="#fff692"></path><path xmlns="http://www.w3.org/2000/svg" d="m67.004 330.574h-21.623c5.579 0 10.101 4.522 10.101 10.101v30.303c0 5.579-4.522 10.101-10.101 10.101h21.623c5.579 0 10.101-4.523 10.101-10.101v-30.303c0-5.579-4.523-10.101-10.101-10.101z" fill="#ffea06" data-original="#ffea06"></path><path xmlns="http://www.w3.org/2000/svg" d="m336.072 108.464h-15.152v-29.673c0-.675-.263-1.309-.741-1.787l-25.964-25.963 10.715-10.715 25.965 25.965c3.339 3.341 5.177 7.78 5.177 12.5z" fill="#887f89" data-original="#887f89"></path><path xmlns="http://www.w3.org/2000/svg" d="m300.823 4.467c2.195-2.195 5.858-1.925 7.665.599 9.928 13.869 8.663 33.28-3.794 45.738s-31.868 13.722-45.738 3.794c-2.524-1.807-2.795-5.469-.599-7.665z" fill="#e04955" data-original="#e04955"></path><path xmlns="http://www.w3.org/2000/svg" d="m445.501 62.26h15.152v46.205h-15.152z" fill="#887f89" data-original="#887f89"></path><circle xmlns="http://www.w3.org/2000/svg" cx="453.077" cy="39.756" fill="#e5646e" r="30.303" data-original="#e5646e"></circle><path xmlns="http://www.w3.org/2000/svg" d="m453.077 9.453c-3.615 0-7.082.635-10.297 1.797 11.667 4.215 20.007 15.385 20.007 28.506s-8.34 24.291-20.007 28.506c3.215 1.162 6.681 1.797 10.297 1.797 16.736 0 30.303-13.567 30.303-30.303s-13.567-30.303-30.303-30.303z" fill="#e04955" data-original="#e04955"></path><circle xmlns="http://www.w3.org/2000/svg" cx="453.077" cy="39.756" fill="#d5f1fe" r="7.576" data-original="#d5f1fe"></circle><path xmlns="http://www.w3.org/2000/svg" d="m501.899 99.252h-226.476c-5.579 0-10.101 4.522-10.101 10.101v399.665h236.577c5.579 0 10.101-4.522 10.101-10.101v-389.564c0-5.579-4.522-10.101-10.101-10.101z" fill="#72d1fb" data-original="#72d1fb"></path><path xmlns="http://www.w3.org/2000/svg" d="m501.899 99.252h-41.184c5.579 0 10.101 4.522 10.101 10.101v389.564c0 5.579-4.522 10.101-10.101 10.101h41.184c5.579 0 10.101-4.523 10.101-10.101v-389.564c0-5.579-4.522-10.101-10.101-10.101z" fill="#40c1fa" data-original="#40c1fa"></path><path xmlns="http://www.w3.org/2000/svg" d="m478.56 378.231h-30.303c-2.789 0-5.051-2.261-5.051-5.051v-30.303c0-2.789 2.261-5.051 5.051-5.051h30.303c2.789 0 5.051 2.261 5.051 5.051v30.303c0 2.79-2.261 5.051-5.051 5.051z" fill="#fff692" data-original="#fff692"></path><path xmlns="http://www.w3.org/2000/svg" d="m478.56 337.826h-19.564c2.789 0 5.05 2.261 5.05 5.051v30.303c0 2.789-2.261 5.05-5.05 5.05h19.564c2.789 0 5.05-2.261 5.05-5.05v-30.303c.001-2.789-2.26-5.051-5.05-5.051z" fill="#ffea06" data-original="#ffea06"></path><path xmlns="http://www.w3.org/2000/svg" d="m403.813 378.231h-30.303c-2.789 0-5.051-2.261-5.051-5.051v-30.303c0-2.789 2.261-5.051 5.051-5.051h30.303c2.789 0 5.051 2.261 5.051 5.051v30.303c-.001 2.79-2.262 5.051-5.051 5.051z" fill="#d5f1fe" data-original="#d5f1fe"></path><path xmlns="http://www.w3.org/2000/svg" d="m329.065 378.231h-30.303c-2.789 0-5.051-2.261-5.051-5.051v-30.303c0-2.789 2.261-5.051 5.051-5.051h30.303c2.789 0 5.051 2.261 5.051 5.051v30.303c-.001 2.79-2.262 5.051-5.051 5.051z" fill="#d5f1fe" data-original="#d5f1fe"></path><path xmlns="http://www.w3.org/2000/svg" d="m403.813 337.826h-19.563c2.789 0 5.051 2.261 5.051 5.051v30.303c0 2.789-2.261 5.05-5.051 5.05h19.563c2.789 0 5.051-2.261 5.051-5.05v-30.303c-.001-2.789-2.262-5.051-5.051-5.051z" fill="#b4e7fd" data-original="#b4e7fd"></path><path xmlns="http://www.w3.org/2000/svg" d="m478.56 277.22h-30.303c-2.789 0-5.051-2.261-5.051-5.051v-30.303c0-2.789 2.261-5.051 5.051-5.051h30.303c2.789 0 5.051 2.261 5.051 5.051v30.303c0 2.79-2.261 5.051-5.051 5.051z" fill="#d5f1fe" data-original="#d5f1fe"></path><path xmlns="http://www.w3.org/2000/svg" d="m478.56 236.816h-19.564c2.789 0 5.05 2.261 5.05 5.05v30.304c0 2.789-2.261 5.05-5.05 5.05h19.564c2.789 0 5.05-2.261 5.05-5.05v-30.304c.001-2.789-2.26-5.05-5.05-5.05z" fill="#b4e7fd" data-original="#b4e7fd"></path><path xmlns="http://www.w3.org/2000/svg" d="m403.813 277.22h-30.303c-2.789 0-5.051-2.261-5.051-5.051v-30.303c0-2.789 2.261-5.051 5.051-5.051h30.303c2.789 0 5.051 2.261 5.051 5.051v30.303c-.001 2.79-2.262 5.051-5.051 5.051z" fill="#fff692" data-original="#fff692"></path><path xmlns="http://www.w3.org/2000/svg" d="m403.813 236.816h-19.563c2.789 0 5.051 2.261 5.051 5.05v30.304c0 2.789-2.261 5.05-5.051 5.05h19.563c2.789 0 5.051-2.261 5.051-5.05v-30.304c-.001-2.789-2.262-5.05-5.051-5.05z" fill="#ffea06" data-original="#ffea06"></path><path xmlns="http://www.w3.org/2000/svg" d="m329.065 277.22h-30.303c-2.789 0-5.051-2.261-5.051-5.051v-30.303c0-2.789 2.261-5.051 5.051-5.051h30.303c2.789 0 5.051 2.261 5.051 5.051v30.303c-.001 2.79-2.262 5.051-5.051 5.051z" fill="#d5f1fe" data-original="#d5f1fe"></path><path xmlns="http://www.w3.org/2000/svg" d="m329.065 236.816h-19.564c2.789 0 5.051 2.261 5.051 5.05v30.304c0 2.789-2.261 5.05-5.051 5.05h19.564c2.789 0 5.051-2.261 5.051-5.05v-30.304c-.001-2.789-2.262-5.05-5.051-5.05z" fill="#b4e7fd" data-original="#b4e7fd"></path><path xmlns="http://www.w3.org/2000/svg" d="m478.56 176.21h-30.303c-2.789 0-5.051-2.261-5.051-5.051v-30.303c0-2.789 2.261-5.051 5.051-5.051h30.303c2.789 0 5.051 2.261 5.051 5.051v30.303c0 2.79-2.261 5.051-5.051 5.051z" fill="#d5f1fe" data-original="#d5f1fe"></path><path xmlns="http://www.w3.org/2000/svg" d="m478.56 135.805h-19.564c2.789 0 5.05 2.261 5.05 5.051v30.303c0 2.789-2.261 5.05-5.05 5.05h19.564c2.789 0 5.05-2.261 5.05-5.05v-30.303c.001-2.79-2.26-5.051-5.05-5.051z" fill="#b4e7fd" data-original="#b4e7fd"></path><path xmlns="http://www.w3.org/2000/svg" d="m403.813 176.21h-30.303c-2.789 0-5.051-2.261-5.051-5.051v-30.303c0-2.789 2.261-5.051 5.051-5.051h30.303c2.789 0 5.051 2.261 5.051 5.051v30.303c-.001 2.79-2.262 5.051-5.051 5.051z" fill="#fff692" data-original="#fff692"></path><path xmlns="http://www.w3.org/2000/svg" d="m403.813 135.805h-19.563c2.789 0 5.051 2.261 5.051 5.051v30.303c0 2.789-2.261 5.05-5.051 5.05h19.563c2.789 0 5.051-2.261 5.051-5.05v-30.303c-.001-2.79-2.262-5.051-5.051-5.051z" fill="#ffea06" data-original="#ffea06"></path><path xmlns="http://www.w3.org/2000/svg" d="m329.065 176.21h-30.303c-2.789 0-5.051-2.261-5.051-5.051v-30.303c0-2.789 2.261-5.051 5.051-5.051h30.303c2.789 0 5.051 2.261 5.051 5.051v30.303c-.001 2.79-2.262 5.051-5.051 5.051z" fill="#d5f1fe" data-original="#d5f1fe"></path><path xmlns="http://www.w3.org/2000/svg" d="m329.065 135.805h-19.564c2.789 0 5.051 2.261 5.051 5.051v30.303c0 2.789-2.261 5.05-5.051 5.05h19.564c2.789 0 5.051-2.261 5.051-5.05v-30.303c-.001-2.79-2.262-5.051-5.051-5.051z" fill="#b4e7fd" data-original="#b4e7fd"></path><path xmlns="http://www.w3.org/2000/svg" d="m402.379 411.825h-27.437c-11.157 0-20.202 9.045-20.202 20.202v76.991h67.841v-76.991c0-11.157-9.044-20.202-20.202-20.202z" fill="#2d56a1" data-original="#2d56a1"></path><path xmlns="http://www.w3.org/2000/svg" d="m402.379 411.825h-13.718v97.193h33.921v-76.991c-.001-11.157-9.045-20.202-20.203-20.202z" fill="#3567c3" data-original="#3567c3"></path></g></svg>