<svg xmlns="http://www.w3.org/2000/svg" version="1.1" xmlns:xlink="http://www.w3.org/1999/xlink" xmlns:svgjs="http://svgjs.com/svgjs" width="512" height="512" x="0" y="0" viewBox="0 0 64 64" style="enable-background:new 0 0 512 512" xml:space="preserve" class=""><g><g xmlns="http://www.w3.org/2000/svg"><g><g><path d="m29.08 10.1h-.01l-2.47.93c-1.57.58-2.6 2.07-2.6 3.74v5.23c0 3.26 1.95 6.06 4.74 7.31-.35 1.57-1.31 2.9-2.61 3.74-.94.6-2.05.95-3.24.95h-2.89l-1.29-1.29c-.46-.46-.71-1.07-.71-1.71s.25-1.25.71-1.71l.58-.58c.46-.46.71-1.07.71-1.71s-.25-1.25-.71-1.71l-.58-.58c-.46-.46-.71-1.07-.71-1.71s.25-1.25.71-1.71l.41-.41c.56-.56.88-1.33.88-2.12v-2.76c0-3.32 1.34-6.32 3.51-8.49s5.17-3.51 8.49-3.51c6.63 0 12 5.37 12 12v2.76c0 .79.32 1.56.88 2.12l.41.41c.46.46.71 1.07.71 1.71s-.25 1.25-.71 1.71l-.58.58c-.46.46-.71 1.07-.71 1.71s.25 1.25.71 1.71l.58.58c.46.46.71 1.07.71 1.71s-.25 1.25-.71 1.71l-1.29 1.29h-2.89c-1.19 0-2.3-.35-3.24-.95-1.3-.84-2.26-2.17-2.61-3.74.9-.4 1.71-.97 2.4-1.65 1.44-1.45 2.34-3.45 2.34-5.66v-4c0-2.21-1.79-4-4-4h-3c-1.59 0-3.01-.74-3.92-1.9z" fill="#fcd770" data-original="#fcd770"></path></g><g><path d="m62 51v3h-14v-3c0-.552.448-1 1-1h12c.552 0 1 .448 1 1z" fill="#ffeaa7" data-original="#ffeaa7"></path></g><g><path d="m62 58v3c0 .55-.45 1-1 1h-12c-.55 0-1-.45-1-1v-3z" fill="#e6e9ed" data-original="#e6e9ed"></path></g><g><path d="m62 54v4h-14v-4h4 4z" fill="#cf9e76" data-original="#cf9e76"></path></g><g><path d="m16 53v5c0 2.21-1.79 4-4 4h-2c-1.93 0-3.53-1.36-3.92-3.18-.05-.26-.08-.54-.08-.82v-4-1c0-.55.45-1 1-1h8c.55 0 1 .45 1 1z" fill="#dfb28b" data-original="#dfb28b"></path></g><g><path d="m44 58v1c0 1.66-1.34 3-3 3h-18c-1.66 0-3-1.34-3-3v-1z" fill="#aab2bd" data-original="#aab2bd"></path></g><g><path d="m44 45v13h-24v-13c0-.55.45-1 1-1h1.67 18.66 1.67c.55 0 1 .45 1 1z" fill="#ccd1d9" data-original="#ccd1d9"></path></g><g><circle cx="32" cy="50" fill="#69d6f4" r="2" data-original="#69d6f4"></circle></g><g><path d="m41.98 40.01c.02.12.02.24.02.36 0 .42-.05.84-.14 1.25l-.53 2.38h-18.66l-.53-2.38c-.09-.41-.14-.83-.14-1.25l.02-.36h-.01l-2.01-.01c-2.03 0-3.97-.34-5.79-.95v-.01l1.62-7.28c.7.16 1.42.24 2.17.24h2 2.89c1.19 0 2.3-.35 3.24-.95l.25 1.99c.04.33.11.65.21.96.71 2.34 2.88 4 5.41 4 1.43 0 2.75-.53 3.75-1.42.77-.68 1.36-1.56 1.66-2.58.1-.31.17-.63.21-.96l.25-1.99c.94.6 2.05.95 3.24.95h2.89 2c.75 0 1.47-.08 2.17-.24l1.62 7.28v.01c-1.82.61-3.76.95-5.79.95l-2.01.01z" fill="#5cd6b3" data-original="#5cd6b3"></path></g><g><path d="m26.59 34h10.82c-.3 1.02-.89 1.9-1.66 2.58-1 .89-2.32 1.42-3.75 1.42-2.53 0-4.7-1.66-5.41-4z" fill="#ffeaa7" data-original="#ffeaa7"></path></g><g><path d="m62 13v9c0 7.91-5.11 14.64-12.21 17.04l-1.62-7.28c4.48-.99 7.83-4.99 7.83-9.76v-4l-.98-.49c-.62-.31-1.02-.95-1.02-1.66 0-1.02.83-1.85 1.85-1.85h.15v-1.01c0-1.65 1.34-2.99 2.99-2.99.83 0 1.59.34 2.13.88s.88 1.29.88 2.12z" fill="#f0d0b4" data-original="#f0d0b4" class=""></path></g><g><path d="m37.87 31.05-.25 1.99c-.04.33-.11.65-.21.96h-10.82c-.1-.31-.17-.63-.21-.96l-.25-1.99c1.3-.84 2.26-2.17 2.61-3.74 1 .44 2.1.69 3.26.69s2.26-.25 3.26-.69c.35 1.57 1.31 2.9 2.61 3.74z" fill="#f0d0b4" data-original="#f0d0b4" class=""></path></g><g><path d="m40 16v4c0 2.21-.9 4.21-2.34 5.66-.69.68-1.5 1.25-2.4 1.65-1 .44-2.1.69-3.26.69s-2.26-.25-3.26-.69c-2.79-1.25-4.74-4.05-4.74-7.31v-5.23c0-1.67 1.03-3.16 2.6-3.74l2.47-.93h.01c.91 1.16 2.33 1.9 3.92 1.9h3c2.21 0 4 1.79 4 4z" fill="#f0d0b4" data-original="#f0d0b4" class=""></path></g><g><path d="m15.83 31.76-1.62 7.28c-7.1-2.4-12.21-9.13-12.21-17.04v-9c0-.83.34-1.58.88-2.12s1.3-.88 2.13-.88c1.65 0 2.99 1.34 2.99 2.99v1.01h.15c1.02 0 1.85.83 1.85 1.85 0 .71-.4 1.35-1.02 1.66l-.98.49v4c0 4.77 3.35 8.77 7.83 9.76z" fill="#f0d0b4" data-original="#f0d0b4" class=""></path></g><g><path d="m28 20h8c0 2.21-1.79 4-4 4-1.1 0-2.1-.45-2.83-1.17-.72-.73-1.17-1.73-1.17-2.83z" fill="#ff826e" data-original="#ff826e"></path></g></g><g><path d="m58.985 9c-2.197 0-3.985 1.788-3.985 3.985v.146c-1.158.363-2 1.447-2 2.724 0 1.087.604 2.065 1.578 2.553l.422.21v3.382c0 4.843-3.848 8.793-8.645 8.982.414-.576.645-1.26.645-1.982 0-.911-.355-1.769-1-2.414l-.585-.586c-.268-.268-.415-.622-.415-1s.147-.732.414-1l.586-.586c.645-.646 1-1.503 1-2.414s-.355-1.769-1-2.414l-.414-.414c-.373-.372-.586-.888-.586-1.414v-2.758c0-7.168-5.832-13-13-13s-13 5.832-13 13.001v2.757c0 .526-.213 1.042-.586 1.414l-.414.414c-.645.646-1 1.503-1 2.414s.355 1.769 1 2.414l.585.586c.268.268.415.622.415 1s-.147.732-.414 1l-.586.586c-.645.646-1 1.503-1 2.414 0 .722.231 1.406.645 1.982-4.797-.188-8.645-4.139-8.645-8.982v-3.382l.423-.211c.973-.487 1.577-1.466 1.577-2.553 0-1.276-.842-2.36-2-2.724v-.146c0-2.196-1.788-3.984-3.985-3.984-2.214 0-4.015 1.794-4.015 4v9.005c0 10.474 8.521 18.997 18.995 19h1.04c.026.279.066.558.127.832l.258 1.163h-.42c-1.103 0-2 .897-2 2v14c0 2.206 1.794 4 4 4h18c2.206 0 4-1.794 4-4v-14c0-1.103-.897-2-2-2h-.42l.259-1.163c.061-.274.1-.553.126-.832h1.04c10.474-.003 18.995-8.526 18.995-19v-9.005c0-2.206-1.801-4-4.015-4zm-39.571 19 .586-.586c.645-.646 1-1.503 1-2.414s-.355-1.769-1-2.414l-.585-.586c-.268-.268-.415-.622-.415-1s.147-.732.414-1l.414-.414c.745-.744 1.172-1.774 1.172-2.828v-2.757c0-6.066 4.935-11.001 11-11.001s11 4.935 11 11v2.758c0 1.054.427 2.084 1.172 2.828l.413.414c.268.268.415.622.415 1s-.147.732-.414 1l-.586.586c-.645.646-1 1.503-1 2.414s.355 1.769 1 2.414l.585.586c.268.268.415.622.415 1s-.147.732-.414 1l-1 1h-2.472c-2.069 0-3.916-1.308-4.652-3.194 2.706-1.554 4.538-4.467 4.538-7.806v-4c0-2.757-2.243-5-5-5h-3c-2.206 0-4-1.794-4-4h-2c0 .926.211 1.803.587 2.587l-1.342.503c-1.941.728-3.245 2.61-3.245 4.682v5.228c0 3.339 1.832 6.252 4.539 7.806-.737 1.886-2.584 3.194-4.653 3.194h-2.472l-1-1c-.267-.268-.414-.622-.414-1s.147-.732.414-1zm17.214 4.915c-.004.029-.015.056-.019.085h-9.218c-.004-.029-.015-.056-.019-.085l-.174-1.394c.957-.747 1.715-1.742 2.18-2.913.83.253 1.71.392 2.622.392s1.792-.139 2.622-.392c.465 1.171 1.223 2.166 2.18 2.913zm-.821 2.085c-.85 1.21-2.242 2-3.807 2s-2.957-.79-3.807-2zm-3.807-8c-3.86 0-7-3.141-7-7v-5.228c0-1.244.782-2.373 1.947-2.81l1.843-.691c1.084 1.069 2.571 1.729 4.21 1.729h3c1.654 0 3 1.346 3 3v4c0 3.859-3.14 7-7 7zm-29-4.995v-9.005c0-1.103.904-2 2.015-2 1.094 0 1.985.891 1.985 1.985v2.015h1.146c.471 0 .854.384.854.854 0 .325-.181.618-.472.764l-1.528.764v4.618c0 4.896 3.218 9.052 7.648 10.474l-1.162 5.228c-6.149-2.562-10.486-8.631-10.486-15.697zm38 38.995h-18c-1.103 0-2-.897-2-2h22c0 1.103-.897 2-2 2zm2-4h-22v-12h22zm1.005-17.995h-1.152c-.119-.579-.304-1.145-.568-1.673l-.39-.779-1.789.895.39.779c.331.66.505 1.4.505 2.139 0 .348-.039.697-.114 1.038l-.356 1.596h-17.062l-.354-1.597c-.076-.34-.115-.69-.115-1.038 0-.738.174-1.479.505-2.139l.39-.779-1.789-.895-.39.779c-.264.528-.449 1.094-.568 1.673h-1.152c-1.598 0-3.138-.238-4.605-.652l1.211-5.451c.459.059.923.099 1.398.099h4.886c.852 0 1.668-.155 2.427-.432l.074.595c.416 3.327 3.259 5.837 6.613 5.837s6.197-2.51 6.612-5.837l.074-.595c.759.277 1.576.432 2.428.432h4.886c.475 0 .939-.04 1.398-.099l1.211 5.451c-1.466.415-3.007.652-4.604.653zm16.995-17c0 7.066-4.337 13.135-10.487 15.697l-1.162-5.228c4.431-1.422 7.649-5.578 7.649-10.474v-4.618l-1.527-.764c-.292-.145-.473-.438-.473-.764 0-.47.383-.854.854-.854h1.146v-2.015c0-1.094.891-1.985 1.985-1.985 1.111 0 2.015.897 2.015 2z" fill="#000000" data-original="#000000" class=""></path><circle cx="28" cy="16" r="1" fill="#000000" data-original="#000000" class=""></circle><circle cx="36" cy="16" r="1" fill="#000000" data-original="#000000" class=""></circle><path d="m37 19h-10v1c0 2.757 2.243 5 5 5s5-2.243 5-5zm-5 4c-1.304 0-2.416-.836-2.829-2h5.657c-.412 1.164-1.524 2-2.828 2z" fill="#000000" data-original="#000000" class=""></path><path d="m15 51h-8c-1.103 0-2 .897-2 2h-.802c-1.763 0-3.198 1.435-3.198 3.198 0 1.519 1.081 2.837 2.571 3.136l1.741.348c.694 1.928 2.524 3.318 4.688 3.318h2c2.757 0 5-2.243 5-5v-5c0-1.103-.897-2-2-2zm-12 5.198c0-.661.538-1.198 1.198-1.198h.802v2.58l-1.036-.207c-.559-.112-.964-.606-.964-1.175zm12 1.802c0 1.654-1.346 3-3 3h-2c-1.654 0-3-1.346-3-3v-5h8z" fill="#000000" data-original="#000000" class=""></path><path d="m15 49c0-1.803-.647-2.774-1.168-3.555-.465-.697-.832-1.248-.832-2.445h-2c0 1.803.647 2.774 1.168 3.555.465.697.832 1.248.832 2.445z" fill="#000000" data-original="#000000" class=""></path><path d="m11 49c0-1.803-.647-2.774-1.168-3.555-.465-.697-.832-1.248-.832-2.445h-2c0 1.803.647 2.774 1.168 3.555.465.697.832 1.248.832 2.445z" fill="#000000" data-original="#000000" class=""></path><path d="m32 53c1.654 0 3-1.346 3-3s-1.346-3-3-3-3 1.346-3 3 1.346 3 3 3zm0-4c.551 0 1 .448 1 1s-.449 1-1 1-1-.448-1-1 .449-1 1-1z" fill="#000000" data-original="#000000" class=""></path><path d="m61 49h-12c-1.103 0-2 .897-2 2v10c0 1.103.897 2 2 2h12c1.103 0 2-.897 2-2v-10c0-1.103-.897-2-2-2zm0 4h-4v-2h4zm-8 0v-2h2v2zm8.001 2v2h-12.001v-2zm-10.001-4v2h-2v-2zm-2 10v-2h12.001v2z" fill="#000000" data-original="#000000" class=""></path></g></g></g></svg>