<svg xmlns="http://www.w3.org/2000/svg" version="1.1" xmlns:xlink="http://www.w3.org/1999/xlink" xmlns:svgjs="http://svgjs.com/svgjs" width="512" height="512" x="0" y="0" viewBox="0 0 64 64" style="enable-background:new 0 0 512 512" xml:space="preserve" class=""><g><g xmlns="http://www.w3.org/2000/svg" id="Layer_3" data-name="Layer 3"><path d="m5 3h54a2 2 0 0 1 2 2v28a0 0 0 0 1 0 0h-58a0 0 0 0 1 0 0v-28a2 2 0 0 1 2-2z" fill="#d1e7f8" data-original="#d1e7f8"></path><path d="m35 33h26v-26a26 26 0 0 1 -26 26z" fill="#bddbff" data-original="#bddbff"></path><circle cx="48" cy="16" fill="#ff6243" r="8" data-original="#ff6243"></circle><path d="m24 21h4v8h-4z" fill="#9bc9ff" data-original="#9bc9ff"></path><path d="m16 21h4v8h-4z" fill="#9bc9ff" data-original="#9bc9ff"></path><path d="m36 17h-28l14-10z" fill="#9bc9ff" data-original="#9bc9ff"></path><path d="m10 17h24v4h-24z" fill="#2488ff" data-original="#2488ff"></path><circle cx="22" cy="13" fill="#f1f2f2" r="2" data-original="#f1f2f2"></circle><path d="m9 29h26v4h-26z" fill="#2488ff" data-original="#2488ff"></path><circle cx="48" cy="20" fill="#ff7956" r="8" data-original="#ff7956"></circle><path d="m35 33h-32v4a2 2 0 0 0 2 2h54a2 2 0 0 0 2-2v-4z" fill="#006df0" data-original="#006df0"></path><path d="m55.586 51.586a2 2 0 0 0 -1.414-.586h-44.344a2 2 0 0 0 -1.414.586l-5.414 5.414h58z" fill="#d1d3d4" data-original="#d1d3d4"></path><path d="m3 59a2 2 0 0 0 2 2h54a2 2 0 0 0 2-2v-2h-58z" fill="#005ece" data-original="#005ece"></path><path d="m27 39h10v5h-10z" fill="#808285" data-original="#808285"></path><path d="m21 44a2 2 0 0 0 -2 2v2h26v-2a2 2 0 0 0 -2-2z" fill="#004fac" data-original="#004fac"></path><path d="m20 21h4v8h-4z" fill="#57a4ff" data-original="#57a4ff"></path><path d="m12 21h4v8h-4z" fill="#57a4ff" data-original="#57a4ff"></path><path d="m28 21h4v8h-4z" fill="#57a4ff" data-original="#57a4ff"></path><path d="m27 39h10v2h-10z" fill="#6d6e71" data-original="#6d6e71"></path><path d="m49 26v-1.1c1.741-.327 3-1.477 3-2.9 0-1.682-1.757-3-4-3-1.221 0-2-.592-2-1s.779-1 2-1 2 .592 2 1a1 1 0 0 0 2 0c0-1.421-1.259-2.571-3-2.9v-1.1a1 1 0 0 0 -2 0v1.1c-1.741.327-3 1.477-3 2.9 0 1.682 1.757 3 4 3 1.221 0 2 .592 2 1s-.779 1-2 1-2-.592-2-1a1 1 0 0 0 -2 0c0 1.421 1.259 2.571 3 2.9v1.1a1 1 0 0 0 2 0z" fill="#ed1c24" data-original="#ed1c24"></path><g fill="#f1f2f2"><path d="m12 53h-1a1 1 0 0 0 0 2h1a1 1 0 0 0 0-2z" fill="#f1f2f2" data-original="#f1f2f2"></path><path d="m49 53h-34a1 1 0 0 0 0 2h34a1 1 0 0 0 0-2z" fill="#f1f2f2" data-original="#f1f2f2"></path><path d="m51 54a1 1 0 0 0 1 1h1a1 1 0 0 0 0-2h-1a1 1 0 0 0 -1 1z" fill="#f1f2f2" data-original="#f1f2f2"></path><path d="m33 35h-2a1 1 0 0 0 0 2h2a1 1 0 0 0 0-2z" fill="#f1f2f2" data-original="#f1f2f2"></path></g><path d="m50 44h9a1 1 0 0 1 0 2h-5a3.009 3.009 0 0 0 -3 3v2h2v-2a1 1 0 0 1 1-1h5a3 3 0 0 0 0-6h-9a1 1 0 0 1 -1-1v-2h-2v2a3.009 3.009 0 0 0 3 3z" fill="#ff5023" data-original="#ff5023"></path><path d="m10 17h24v1h-24z" fill="#006df0" data-original="#006df0"></path></g></g></svg>