<svg xmlns="http://www.w3.org/2000/svg" version="1.1" xmlns:xlink="http://www.w3.org/1999/xlink" xmlns:svgjs="http://svgjs.com/svgjs" width="512" height="512" x="0" y="0" viewBox="0 0 64 64" style="enable-background:new 0 0 512 512" xml:space="preserve" class=""><g><g xmlns="http://www.w3.org/2000/svg" id="Icons"><g><g><path d="m41 48.127v-.127c0-2.206 1.794-4 4-4h7v-13.172l-.828-.828c-.756-.756-1.172-1.76-1.172-2.828v-4.344c0-1.068.416-2.072 1.172-2.828l.828-.828v-2.172c0-.346.071-.673.179-.982-.06-.005-.118-.018-.179-.018h-44c-1.105 0-2 .895-2 2v32c0 1.104.895 2 2 2h30c0-1.86 1.277-3.429 3-3.873z" fill="#505050" data-original="#505050"></path></g><g><path d="m18 4 8 12h2l-8-12z" fill="#505050" data-original="#505050"></path></g><g><path d="m34 4-8 12h-2l8-12z" fill="#505050" data-original="#505050"></path></g><g><path d="m10 50v-22-8-2c0-1.105.895-2 2-2h-4c-1.105 0-2 .895-2 2v32c0 1.105.895 2 2 2h4c-1.105 0-2-.895-2-2z" fill="#3c3c3c" data-original="#3c3c3c"></path></g><g><path d="m32 16h-12c0-2.209 1.791-4 4-4h4c2.209 0 4 1.791 4 4z" fill="#f0f0f0" data-original="#f0f0f0"></path></g><g><path d="m26 12h-2c-2.209 0-4 1.791-4 4h2c0-2.209 1.791-4 4-4z" fill="#d2d2d2" data-original="#d2d2d2"></path></g><g><path d="m44 34h8v2h-8z" fill="#3c3c3c" data-original="#3c3c3c"></path></g><g><path d="m44 38h8v2h-8z" fill="#3c3c3c" data-original="#3c3c3c"></path></g><g><path d="m48 32c-1.105 0-2-.895-2-2v-8c0-1.105.895-2 2-2 1.105 0 2 .895 2 2v8c0 1.105-.895 2-2 2z" fill="#3c3c3c" data-original="#3c3c3c"></path></g><g><path d="m48 24c-1.105 0-2-.895-2-2 0-1.105.895-2 2-2 1.105 0 2 .895 2 2 0 1.105-.895 2-2 2z" fill="#fa6450" data-original="#fa6450"></path></g><g><path d="m48 32c-1.105 0-2-.895-2-2 0-1.105.895-2 2-2 1.105 0 2 .895 2 2 0 1.105-.895 2-2 2z" fill="#fab400" data-original="#fab400"></path></g><g><path d="m48 56h-8v-4c0-1.105.895-2 2-2h4c1.105 0 2 .895 2 2z" fill="#505050" data-original="#505050"></path></g><g><path d="m44 50h-2c-1.105 0-2 .895-2 2v4h2v-4c0-1.105.895-2 2-2z" fill="#3c3c3c" data-original="#3c3c3c"></path></g><g><path d="m49 58h-10c-.552 0-1-.448-1-1 0-.552.448-1 1-1h10c.552 0 1 .448 1 1 0 .552-.448 1-1 1z" fill="#3c3c3c" data-original="#3c3c3c"></path></g><g><g><path d="m41 58h2v2h-2z" fill="#f0f0f0" data-original="#f0f0f0"></path></g><g><path d="m45 58h2v2h-2z" fill="#f0f0f0" data-original="#f0f0f0"></path></g></g><g><path d="m54 32v14h-9c-1.105 0-2 .895-2 2v2h2v-2h9c1.105 0 2-.895 2-2v-14z" fill="#fab400" data-original="#fab400"></path></g><g><path d="m53.414 29.414-.828-.828c-.375-.375-.586-.884-.586-1.414v-4.343c0-.53.211-1.039.586-1.414l1.414-1.415h2l1.414 1.414c.375.375.586.884.586 1.414v4.343c0 .53-.211 1.039-.586 1.414l-.828.828c-.375.376-.586.885-.586 1.415v1.172h-2v-1.172c0-.53-.211-1.039-.586-1.414z" fill="#fa6450" data-original="#fa6450"></path></g><g><path d="m55.414 29.414-.828-.828c-.375-.375-.586-.884-.586-1.414v-4.343c0-.53.211-1.039.586-1.414l1.414-1.415h-2l-1.414 1.414c-.375.375-.586.884-.586 1.414v4.343c0 .53.211 1.039.586 1.414l.828.828c.375.376.586.885.586 1.415v1.172h2v-1.172c0-.53-.211-1.039-.586-1.414z" fill="#dc4632" data-original="#dc4632"></path></g><g><path d="m56 20h-2v-3c0-.552.448-1 1-1 .552 0 1 .448 1 1z" fill="#f0f0f0" data-original="#f0f0f0"></path></g><g><path d="m10 20h32v24h-32z" fill="#64c8f0" data-original="#64c8f0"></path></g><g><path d="m52 24h6v2h-6z" fill="#dc4632" data-original="#dc4632"></path></g><g><path d="m26 50c-1.105 0-2-.895-2-2 0-1.105.895-2 2-2 1.105 0 2 .895 2 2 0 1.105-.895 2-2 2z" fill="#3c3c3c" data-original="#3c3c3c"></path></g></g></g></g></svg>