<svg xmlns="http://www.w3.org/2000/svg" version="1.1" xmlns:xlink="http://www.w3.org/1999/xlink" xmlns:svgjs="http://svgjs.com/svgjs" width="512" height="512" x="0" y="0" viewBox="0 0 512 512" style="enable-background:new 0 0 512 512" xml:space="preserve" class=""><g><circle xmlns="http://www.w3.org/2000/svg" cx="368" cy="144" fill="#8acce7" r="120" data-original="#8acce7"></circle><path xmlns="http://www.w3.org/2000/svg" d="m318.11144 456h-132.22291a16 16 0 0 1 -14.31084-23.15542l48-96a16 16 0 0 1 14.31084-8.84458h132.22291a16 16 0 0 1 14.31084 23.15542l-48 96a16 16 0 0 1 -14.31084 8.84458z" fill="#8acce7" data-original="#8acce7"></path><path xmlns="http://www.w3.org/2000/svg" d="m40 456h136a0 0 0 0 1 0 0v32a0 0 0 0 1 0 0h-136a16 16 0 0 1 -16-16 16 16 0 0 1 16-16z" fill="#8acce7" data-original="#8acce7"></path><path xmlns="http://www.w3.org/2000/svg" d="m286.11144 456h-100.22291a16 16 0 0 1 -14.31084-23.15542l48-96a16 16 0 0 1 14.31084-8.84458h100.22291a16 16 0 0 1 14.31084 23.15542l-48 96a16 16 0 0 1 -14.31084 8.84458z" fill="#a2c32a" data-original="#a2c32a"></path><rect xmlns="http://www.w3.org/2000/svg" fill="#379ec3" height="32" rx="16" width="192" x="160" y="456" data-original="#379ec3"></rect><path xmlns="http://www.w3.org/2000/svg" d="m368 16a128 128 0 1 0 128 128 128.14509 128.14509 0 0 0 -128-128zm-33.68066 171.19208a167.958 167.958 0 0 1 -5.43042-35.19208h78.22216a167.958 167.958 0 0 1 -5.43042 35.19208 185.75762 185.75762 0 0 0 -67.36132 0zm62.478 15.35089a167.4043 167.4043 0 0 1 -28.79734 49.38458 167.4043 167.4043 0 0 1 -28.79736-49.38455 169.62138 169.62138 0 0 1 57.59472 0zm-28.79734-98.63379a185.64879 185.64879 0 0 0 33.68042-3.10162 167.94587 167.94587 0 0 1 5.43066 35.19244h-78.22216a167.94587 167.94587 0 0 1 5.43066-35.19244 185.64879 185.64879 0 0 0 33.68042 3.10162zm-28.79736-18.45218a167.4043 167.4043 0 0 1 28.79736-49.38455 167.4043 167.4043 0 0 1 28.79736 49.38455 169.62138 169.62138 0 0 1 -57.59472 0zm-26.32325 50.543h-56.59057a111.33512 111.33512 0 0 1 20.13281-56.404 182.17668 182.17668 0 0 0 42.29321 17.63012 183.99738 183.99738 0 0 0 -5.83545 38.77388zm0 16a183.995 183.995 0 0 0 5.83545 38.77368 182.18034 182.18034 0 0 0 -42.29321 17.63032 111.3329 111.3329 0 0 1 -20.13281-56.404zm110.24122 0h56.59057a111.3329 111.3329 0 0 1 -20.13281 56.404 182.18034 182.18034 0 0 0 -42.29321-17.63031 183.995 183.995 0 0 0 5.83545-38.77369zm0-16a183.99738 183.99738 0 0 0 -5.83545-38.77393 182.17668 182.17668 0 0 0 42.29321-17.63007 111.33512 111.33512 0 0 1 20.13281 56.404zm26.15576-68.97815a166.39649 166.39649 0 0 1 -36.731 14.91919 183.10808 183.10808 0 0 0 -26.13989-48.42023 111.88357 111.88357 0 0 1 62.87089 33.50104zm-99.68189-33.501a183.10808 183.10808 0 0 0 -26.13989 48.42015 166.39649 166.39649 0 0 1 -36.731-14.91919 111.88357 111.88357 0 0 1 62.87089-33.501zm-62.87109 187.4573a166.403 166.403 0 0 1 36.7312-14.91919 183.10808 183.10808 0 0 0 26.13989 48.42023 111.885 111.885 0 0 1 -62.87109-33.50104zm99.68213 33.501a183.10808 183.10808 0 0 0 26.13989-48.42015 166.403 166.403 0 0 1 36.7312 14.91919 111.885 111.885 0 0 1 -62.87109 33.501z" fill="#2d80b3" data-original="#2d80b3"></path><g xmlns="http://www.w3.org/2000/svg" fill="#e44042"><path d="m448 336v72a7.9979 7.9979 0 0 1 -8 8h-56v-16h48v-64z" fill="#e44042" data-original="#e44042"></path><path d="m432 304h16v16h-16z" fill="#e44042" data-original="#e44042"></path><path d="m432 272h16v16h-16z" fill="#e44042" data-original="#e44042"></path><path d="m152 136v256h64v16h-72a7.9979 7.9979 0 0 1 -8-8v-272a7.99782 7.99782 0 0 1 8-8h72v16z" fill="#e44042" data-original="#e44042"></path><path d="m232 392h16v16h-16z" fill="#e44042" data-original="#e44042"></path><path d="m264 392h16v16h-16z" fill="#e44042" data-original="#e44042"></path></g><path xmlns="http://www.w3.org/2000/svg" d="m406.63 408 8 8h-30.63v-16h30.63z" fill="#d1393b" data-original="#d1393b"></path><path xmlns="http://www.w3.org/2000/svg" d="m402.34277 437.65674-24-24a8 8 0 0 1 0-11.31348l24-24 11.31446 11.31348-18.34375 18.34326 18.34375 18.34326z" fill="#e44042" data-original="#e44042"></path><path xmlns="http://www.w3.org/2000/svg" d="m216 120v16h-30.63l8-8-8-8z" fill="#d1393b" data-original="#d1393b"></path><path xmlns="http://www.w3.org/2000/svg" d="m197.65723 157.65674-11.31446-11.31348 18.34375-18.34326-18.34375-18.34326 11.31446-11.31348 24 24a8 8 0 0 1 0 11.31348z" fill="#e44042" data-original="#e44042"></path></g></svg>