<svg xmlns="http://www.w3.org/2000/svg" version="1.1" xmlns:xlink="http://www.w3.org/1999/xlink" xmlns:svgjs="http://svgjs.com/svgjs" width="512" height="512" x="0" y="0" viewBox="0 0 64 64" style="enable-background:new 0 0 512 512" xml:space="preserve" class=""><g><g xmlns="http://www.w3.org/2000/svg" id="_22._Satellite" data-name="22. Satellite"><rect fill="#ccd3eb" height="16" rx="1" width="8" x="29" y="3" data-original="#ccd3eb"></rect><path d="m36 16h-6a1 1 0 0 1 -1-1v3a1 1 0 0 0 1 1h6a1 1 0 0 0 1-1v-3a1 1 0 0 1 -1 1z" fill="#96a1c3" data-original="#96a1c3"></path><rect fill="#f5f7ff" height="10" rx="1" width="16" x="9" y="6" data-original="#f5f7ff"></rect><path d="m24 13h-14a1 1 0 0 1 -1-1v3a1 1 0 0 0 1 1h14a1 1 0 0 0 1-1v-3a1 1 0 0 1 -1 1z" fill="#ccd3eb" data-original="#ccd3eb"></path><rect fill="#f5f7ff" height="10" rx="1" width="16" x="41" y="6" data-original="#f5f7ff"></rect><path d="m56 13h-14a1 1 0 0 1 -1-1v3a1 1 0 0 0 1 1h14a1 1 0 0 0 1-1v-3a1 1 0 0 1 -1 1z" fill="#ccd3eb" data-original="#ccd3eb"></path><g fill="#0074ff"><path d="m33 24a1 1 0 1 0 -1-1 1 1 0 0 0 1 1z" fill="#0074ff" data-original="#0074ff" class=""></path><path d="m36.53 26.54a1 1 0 1 0 -1.4-1.42 3.1 3.1 0 0 1 -4.26 0 1 1 0 1 0 -1.4 1.42 5 5 0 0 0 7.06 0z" fill="#0074ff" data-original="#0074ff" class=""></path><path d="m39.37 28a1 1 0 0 0 -1.37 0 7 7 0 0 1 -10 0 1 1 0 1 0 -1.4 1.42 9 9 0 0 0 12.72 0 1 1 0 0 0 .05-1.42z" fill="#0074ff" data-original="#0074ff" class=""></path></g><path d="m61 63h-56a28 28 0 0 1 56 0z" fill="#f5f7ff" data-original="#f5f7ff"></path><path d="m61 63h-56a27 27 0 0 1 .16-3h55.68a27 27 0 0 1 .16 3z" fill="#ccd3eb" data-original="#ccd3eb"></path><path d="m48 39.37v1.39a2 2 0 0 1 -1.11 1.79l-1.78.9a2 2 0 0 0 -1.11 1.79v3.32a2 2 0 0 1 -1.37 1.9l-.26.08a2 2 0 0 0 -1.37 1.9v10.56h-6c-1.27-3.8-.62-1.87-2.74-8.21a2 2 0 0 0 -1-1.16l-4.15-2.08a2 2 0 0 1 -1.11-1.79v-2.52a2 2 0 0 0 -1.11-1.79l-5.78-2.9a2 2 0 0 1 -1.11-1.79v-1.39a27.92 27.92 0 0 1 30 0z" fill="#ccd3eb" data-original="#ccd3eb"></path><path d="m41 60v3h-6l-1-3z" fill="#96a1c3" data-original="#96a1c3"></path><path d="m23 60.13v2.87h-18a27.77 27.77 0 0 1 4.13-14.62l6.77 2.25a2 2 0 0 1 1.33 1.51l.6 3a2 2 0 0 0 .93 1.33l3.27 2a2 2 0 0 1 .97 1.66z" fill="#ccd3eb" data-original="#ccd3eb"></path><path d="m23 60.13v2.87h-18a26.89 26.89 0 0 1 .16-3c19.18 0 17.84-.06 17.84.13z" fill="#96a1c3" data-original="#96a1c3"></path><path d="m7.7 42.14a6 6 0 0 0 -2.88 10.16 18 18 0 0 1 2.37 3l1 1.46a1 1 0 0 0 1.66 0 28.47 28.47 0 0 1 3.41-4.5 6 6 0 0 0 -5.56-10.12z" fill="#0074ff" data-original="#0074ff" class=""></path><path d="m10 17h14a2 2 0 0 0 2-2v-3h2v6a2 2 0 0 0 2 2h6a2 2 0 0 0 2-2v-6h2v3a2 2 0 0 0 2 2h14a2 2 0 0 0 2-2v-8a2 2 0 0 0 -2-2h-14a2 2 0 0 0 -2 2v3h-2v-6a2 2 0 0 0 -2-2v-1a1 1 0 0 0 -2 0v1h-2v-1a1 1 0 0 0 -2 0v1a2 2 0 0 0 -2 2v6h-2v-3a2 2 0 0 0 -2-2h-3a1 1 0 0 0 0 2h3v3h-6v-4a1 1 0 0 0 -1-1h-7a2 2 0 0 0 -2 2v8a2 2 0 0 0 2 2zm32-5h6v3h-6zm8 3v-3h6v3zm6-5h-6v-3h6zm-8-3v3h-6v-3zm-18-3h6v14h-6zm-20 8h6v3h-6zm14 0v3h-6v-3zm-8-5v3h-6v-3z" fill="#033c59" data-original="#033c59"></path><path d="m58.12 48.5a1 1 0 0 0 -1.37-.37 1 1 0 0 0 -.36 1.37 27 27 0 0 1 3.61 12.5h-18v-9.56a1 1 0 0 1 .68-.95l.32-.09a3 3 0 0 0 2-2.84v-3.32a1 1 0 0 1 .55-.9l1.79-.89a3 3 0 0 0 1.59-2.22c.48.35 1 .7 1.43 1.09a1 1 0 1 0 1.28-1.53 29 29 0 0 0 -38.78 1.37 7 7 0 0 0 -8.74 10.84 11.11 11.11 0 0 1 1.2 1.37 29.09 29.09 0 0 0 -1.32 8.63 1 1 0 0 0 1 1h56a1 1 0 0 0 1-1 29 29 0 0 0 -3.88-14.5zm-39.46-5 5.79 2.89a1 1 0 0 1 .55.9v2.52a3 3 0 0 0 1.66 2.69l4.15 2.07a1 1 0 0 1 .5.58l2.3 6.9h-9.61v-1.92a3 3 0 0 0 -1.46-2.57l-3.26-2a1 1 0 0 1 -.47-.67l-.6-3a3 3 0 0 0 -2-2.27l-.4-.13a6.94 6.94 0 0 0 -1.47-6 26.27 26.27 0 0 1 2.66-2.26 3 3 0 0 0 1.66 2.22zm-9.66-.5a5 5 0 0 1 3.54 8.54 29.13 29.13 0 0 0 -3.54 4.66 27 27 0 0 0 -3.48-4.61 5 5 0 0 1 3.48-8.59zm-2.2 13.5c.54.81 1 1.7 2.2 1.7a2 2 0 0 0 1.66-.89l.68-1c2.46-3.69 2.79-3.15 3.77-4.88l.47.16a1 1 0 0 1 .67.76l.6 3a3 3 0 0 0 1.4 2l3.27 2a1 1 0 0 1 .48.85v1.8h-16a26.81 26.81 0 0 1 .8-5.5zm28.92 5.5-2.51-7.53a3 3 0 0 0 -1.5-1.73l-4.16-2.08a1 1 0 0 1 -.55-.9v-2.52a3 3 0 0 0 -1.66-2.69l-5.79-2.89a1 1 0 0 1 -.55-.9v-.86a26.94 26.94 0 0 1 28 0v.82a1 1 0 0 1 -.55.9l-1.79.89a3 3 0 0 0 -1.66 2.73v3.32a1 1 0 0 1 -.68.95l-.27.09a3 3 0 0 0 -2 2.84v9.56z" fill="#033c59" data-original="#033c59"></path><path d="m53.34 43.73a1 1 0 0 0 -.09 1.41c.33.38.65.77 1 1.16a1 1 0 1 0 1.56-1.24c-.33-.42-.67-.84-1-1.24a1 1 0 0 0 -1.47-.09z" fill="#033c59" data-original="#033c59"></path><path d="m9 50a2 2 0 1 1 2-2 2 2 0 0 1 -2 2z" fill="#f5f7ff" data-original="#f5f7ff"></path><path d="m25 1a1 1 0 1 0 1 1 1 1 0 0 0 -1-1z" fill="#0074ff" data-original="#0074ff" class=""></path><path d="m21 1a1 1 0 1 0 1 1 1 1 0 0 0 -1-1z" fill="#0074ff" data-original="#0074ff" class=""></path><path d="m55 58h-2a1 1 0 0 0 0 2h2a1 1 0 0 0 0-2z" fill="#96a1c3" data-original="#96a1c3"></path><path d="m53 56h2a1 1 0 0 0 0-2h-2a1 1 0 0 0 0 2z" fill="#96a1c3" data-original="#96a1c3"></path></g></g></svg>